<mxfile host="Electron" modified="2024-09-23T05:44:35.475Z" agent="Mozilla/5.0 (Windows NT 10.0; Win64; x64) AppleWebKit/537.36 (KHTML, like Gecko) draw.io/22.1.11 Chrome/114.0.5735.289 Electron/25.9.8 Safari/537.36" etag="9JfZpU_o3G7So2NMFQZX" version="22.1.11" type="device">
  <diagram name="第 1 页" id="ypxzJgjApbNqddavya6D">
    <mxGraphModel dx="1158" dy="1896" grid="1" gridSize="10" guides="1" tooltips="1" connect="1" arrows="1" fold="1" page="1" pageScale="1" pageWidth="827" pageHeight="1169" math="0" shadow="0">
      <root>
        <mxCell id="0" />
        <mxCell id="1" parent="0" />
        <mxCell id="bXLIL-4T1kPuAxH4YukT-2" value="" style="sketch=0;pointerEvents=1;shadow=0;dashed=0;html=1;strokeColor=none;fillColor=#505050;labelPosition=center;verticalLabelPosition=bottom;verticalAlign=top;outlineConnect=0;align=center;shape=mxgraph.office.servers.application_server;points=[[0,0.33,0,0,0],[0,0.67,0,0,0],[0.33,0,0,0,0],[0.33,1,0,0,0],[0.67,0,0,0,0],[0.67,1,0,0,0],[1,0.33,0,0,0],[1,0.67,0,0,0]];" parent="1" vertex="1">
          <mxGeometry x="210" y="-910" width="60" height="70" as="geometry" />
        </mxCell>
        <mxCell id="bXLIL-4T1kPuAxH4YukT-4" value="" style="sketch=0;pointerEvents=1;shadow=0;dashed=0;html=1;strokeColor=none;fillColor=#505050;labelPosition=center;verticalLabelPosition=bottom;verticalAlign=top;outlineConnect=0;align=center;shape=mxgraph.office.devices.tv;points=[[0,0.33,0,0,0],[0,0.67,0,0,0],[0.33,0,0,0,0],[0.33,1,0,0,0],[0.67,0,0,0,0],[0.67,1,0,0,0],[1,0.33,0,0,0],[1,0.67,0,0,0]];" parent="1" vertex="1">
          <mxGeometry x="50" y="-1073.5" width="60" height="45" as="geometry" />
        </mxCell>
        <mxCell id="bXLIL-4T1kPuAxH4YukT-5" value="" style="sketch=0;pointerEvents=1;shadow=0;dashed=0;html=1;strokeColor=none;fillColor=#505050;labelPosition=center;verticalLabelPosition=bottom;verticalAlign=top;outlineConnect=0;align=center;shape=mxgraph.office.servers.application_server;points=[[0,0.33,0,0,0],[0,0.67,0,0,0],[0.33,0,0,0,0],[0.33,1,0,0,0],[0.67,0,0,0,0],[0.67,1,0,0,0],[1,0.33,0,0,0],[1,0.67,0,0,0]];" parent="1" vertex="1">
          <mxGeometry x="420" y="-760" width="60" height="70" as="geometry" />
        </mxCell>
        <mxCell id="bXLIL-4T1kPuAxH4YukT-6" value="" style="image;sketch=0;aspect=fixed;html=1;points=[[0,0.33,0,0,0],[0,0.67,0,0,0],[0.33,0,0,0,0],[0.33,1,0,0,0],[0.67,0,0,0,0],[0.67,1,0,0,0],[1,0.33,0,0,0],[1,0.67,0,0,0]];align=center;fontSize=12;image=img/lib/mscae/Cache_Redis_Product.svg;" parent="1" vertex="1">
          <mxGeometry x="777" y="-1070.5" width="50" height="42" as="geometry" />
        </mxCell>
        <mxCell id="bXLIL-4T1kPuAxH4YukT-8" value="1. 与 Netty 建立 WS 连接" style="text;html=1;align=center;verticalAlign=middle;resizable=0;points=[];autosize=1;strokeColor=none;fillColor=none;rotation=0;" parent="1" vertex="1">
          <mxGeometry x="180" y="-1097.5" width="160" height="30" as="geometry" />
        </mxCell>
        <mxCell id="bXLIL-4T1kPuAxH4YukT-10" value="2.将 {ChannelID: Gateway} 放入到Redis 中" style="text;html=1;align=center;verticalAlign=middle;resizable=0;points=[];autosize=1;strokeColor=none;fillColor=none;rotation=0;" parent="1" vertex="1">
          <mxGeometry x="500" y="-1097.5" width="250" height="30" as="geometry" />
        </mxCell>
        <mxCell id="bXLIL-4T1kPuAxH4YukT-12" value="3. 返回 ChannlID，作为该连接的标识" style="text;html=1;align=center;verticalAlign=middle;resizable=0;points=[];autosize=1;strokeColor=none;fillColor=none;rotation=0;" parent="1" vertex="1">
          <mxGeometry x="160" y="-1028.5" width="220" height="30" as="geometry" />
        </mxCell>
        <mxCell id="bXLIL-4T1kPuAxH4YukT-13" value="" style="sketch=0;pointerEvents=1;shadow=0;dashed=0;html=1;strokeColor=none;fillColor=#505050;labelPosition=center;verticalLabelPosition=bottom;verticalAlign=top;outlineConnect=0;align=center;shape=mxgraph.office.servers.application_server;points=[[0,0.33,0,0,0],[0,0.67,0,0,0],[0.33,0,0,0,0],[0.33,1,0,0,0],[0.67,0,0,0,0],[0.67,1,0,0,0],[1,0.33,0,0,0],[1,0.67,0,0,0]];" parent="1" vertex="1">
          <mxGeometry x="430" y="-1082.5" width="60" height="70" as="geometry" />
        </mxCell>
        <mxCell id="bXLIL-4T1kPuAxH4YukT-18" style="rounded=0;orthogonalLoop=1;jettySize=auto;html=1;exitX=1;exitY=0.33;exitDx=0;exitDy=0;exitPerimeter=0;entryX=0;entryY=0.33;entryDx=0;entryDy=0;entryPerimeter=0;" parent="1" source="bXLIL-4T1kPuAxH4YukT-4" target="bXLIL-4T1kPuAxH4YukT-13" edge="1">
          <mxGeometry relative="1" as="geometry" />
        </mxCell>
        <mxCell id="bXLIL-4T1kPuAxH4YukT-19" style="rounded=0;orthogonalLoop=1;jettySize=auto;html=1;exitX=0;exitY=0.67;exitDx=0;exitDy=0;exitPerimeter=0;entryX=1;entryY=0.67;entryDx=0;entryDy=0;entryPerimeter=0;" parent="1" source="bXLIL-4T1kPuAxH4YukT-13" target="bXLIL-4T1kPuAxH4YukT-4" edge="1">
          <mxGeometry relative="1" as="geometry" />
        </mxCell>
        <mxCell id="bXLIL-4T1kPuAxH4YukT-20" style="rounded=0;orthogonalLoop=1;jettySize=auto;html=1;exitX=1;exitY=0.33;exitDx=0;exitDy=0;exitPerimeter=0;entryX=0;entryY=0.33;entryDx=0;entryDy=0;entryPerimeter=0;" parent="1" source="bXLIL-4T1kPuAxH4YukT-13" target="bXLIL-4T1kPuAxH4YukT-6" edge="1">
          <mxGeometry relative="1" as="geometry" />
        </mxCell>
        <mxCell id="bXLIL-4T1kPuAxH4YukT-22" style="rounded=0;orthogonalLoop=1;jettySize=auto;html=1;entryX=0.33;entryY=1;entryDx=0;entryDy=0;entryPerimeter=0;endArrow=none;endFill=0;exitX=1;exitY=0.25;exitDx=0;exitDy=0;" parent="1" source="bXLIL-4T1kPuAxH4YukT-32" target="bXLIL-4T1kPuAxH4YukT-13" edge="1">
          <mxGeometry relative="1" as="geometry">
            <mxPoint x="320" y="-890" as="sourcePoint" />
          </mxGeometry>
        </mxCell>
        <mxCell id="bXLIL-4T1kPuAxH4YukT-23" style="rounded=0;orthogonalLoop=1;jettySize=auto;html=1;entryX=0.33;entryY=0;entryDx=0;entryDy=0;entryPerimeter=0;endArrow=none;endFill=0;exitX=1.033;exitY=0.838;exitDx=0;exitDy=0;exitPerimeter=0;" parent="1" source="bXLIL-4T1kPuAxH4YukT-32" target="bXLIL-4T1kPuAxH4YukT-5" edge="1">
          <mxGeometry relative="1" as="geometry">
            <mxPoint x="310" y="-850" as="sourcePoint" />
          </mxGeometry>
        </mxCell>
        <mxCell id="bXLIL-4T1kPuAxH4YukT-24" style="rounded=0;orthogonalLoop=1;jettySize=auto;html=1;exitX=1;exitY=0.33;exitDx=0;exitDy=0;exitPerimeter=0;entryX=0;entryY=0.33;entryDx=0;entryDy=0;entryPerimeter=0;" parent="1" source="bXLIL-4T1kPuAxH4YukT-5" target="bXLIL-4T1kPuAxH4YukT-6" edge="1">
          <mxGeometry relative="1" as="geometry" />
        </mxCell>
        <mxCell id="bXLIL-4T1kPuAxH4YukT-25" style="rounded=0;orthogonalLoop=1;jettySize=auto;html=1;exitX=0.67;exitY=1;exitDx=0;exitDy=0;exitPerimeter=0;entryX=0;entryY=0.33;entryDx=0;entryDy=0;entryPerimeter=0;" parent="1" source="bXLIL-4T1kPuAxH4YukT-4" target="bXLIL-4T1kPuAxH4YukT-2" edge="1">
          <mxGeometry relative="1" as="geometry" />
        </mxCell>
        <mxCell id="bXLIL-4T1kPuAxH4YukT-28" value="应用服务器" style="text;html=1;align=center;verticalAlign=middle;resizable=0;points=[];autosize=1;strokeColor=none;fillColor=none;" parent="1" vertex="1">
          <mxGeometry x="230" y="-800" width="80" height="30" as="geometry" />
        </mxCell>
        <mxCell id="bXLIL-4T1kPuAxH4YukT-29" value="Netty" style="text;html=1;align=center;verticalAlign=middle;resizable=0;points=[];autosize=1;strokeColor=none;fillColor=none;" parent="1" vertex="1">
          <mxGeometry x="430" y="-998.5" width="50" height="30" as="geometry" />
        </mxCell>
        <mxCell id="bXLIL-4T1kPuAxH4YukT-30" value="Netty" style="text;html=1;align=center;verticalAlign=middle;resizable=0;points=[];autosize=1;strokeColor=none;fillColor=none;" parent="1" vertex="1">
          <mxGeometry x="420" y="-680" width="50" height="30" as="geometry" />
        </mxCell>
        <mxCell id="bXLIL-4T1kPuAxH4YukT-31" value="2. 将 userID: [channel1, channel2, ...] 放入到 Redis 种" style="text;html=1;align=center;verticalAlign=middle;resizable=0;points=[];autosize=1;strokeColor=none;fillColor=none;" parent="1" vertex="1">
          <mxGeometry x="467" y="-1050" width="310" height="30" as="geometry" />
        </mxCell>
        <mxCell id="bXLIL-4T1kPuAxH4YukT-32" value="Provider" style="rounded=0;whiteSpace=wrap;html=1;" parent="1" vertex="1">
          <mxGeometry x="270" y="-920" width="60" height="105" as="geometry" />
        </mxCell>
      </root>
    </mxGraphModel>
  </diagram>
</mxfile>
